<svg width="180" height="29" viewBox="0 0 180 29" fill="none" xmlns="http://www.w3.org/2000/svg">
<path fill-rule="evenodd" clip-rule="evenodd" d="M24.9305 4.30626C22.7327 4.30626 20.9046 5.17704 19.7118 6.57416C19.6229 6.68005 19.5706 6.81185 19.5627 6.9499C19.5622 7.01575 19.5762 7.0809 19.6038 7.1407C19.6314 7.2005 19.6718 7.25347 19.7222 7.29583L20.6914 8.19046C20.7448 8.25341 20.812 8.30314 20.8878 8.33574C20.9636 8.36833 21.0459 8.38292 21.1283 8.37834C21.2722 8.36335 21.4057 8.29658 21.504 8.19046C22.3167 7.34951 23.2858 6.77396 24.8514 6.77396C27.5249 6.77396 29.4663 8.65567 29.4663 11.2993C29.4663 13.9429 27.5279 15.8455 24.7918 15.8455C23.9106 15.8455 22.7416 15.3594 21.7411 14.5975L21.6233 14.4782C19.919 13.023 19.1467 10.7253 18.4742 8.51402L18.3355 8.0667C18.3002 7.9525 18.2651 7.83863 18.2303 7.72535L18.2303 7.72532C18.0021 6.9837 17.7816 6.26679 17.5229 5.64076C17.4931 5.58112 17.2858 5.14573 17.2247 5.01601C16.5084 3.58853 15.4288 2.37485 14.0945 1.49702C12.7603 0.619193 11.2184 0.108178 9.62395 0.0153711C8.02952 -0.0774362 6.43877 0.251236 5.01167 0.968332C3.58458 1.68543 2.37147 2.76566 1.49435 4.10039C0.61724 5.43511 0.107047 6.97727 0.0150904 8.57175C-0.0768663 10.1662 0.252656 11.7568 0.970513 13.1835C1.68837 14.6102 2.76925 15.8228 4.10444 16.6992C5.43964 17.5756 6.98206 18.0849 8.57659 18.176H24.8514C25.4778 18.1539 26.1001 18.0654 26.7078 17.9121C29.8867 17.2188 32.1442 14.6929 32.1442 11.2874C32.1487 7.31372 29.0398 4.30626 24.9305 4.30626ZM15.2803 6.47948L15.2803 6.47951C15.2944 6.51281 15.3089 6.54711 15.3251 6.58311C15.5639 7.16143 15.7758 7.86624 16.0024 8.61949L16.0572 8.80179C16.4125 10.0512 16.8427 11.2781 17.3455 12.4757C17.8639 13.6947 18.591 14.8139 19.4941 15.7829H9.13574C7.93449 15.784 6.75514 15.4614 5.72174 14.849C4.68833 14.2365 3.83905 13.3569 3.26323 12.3027C2.68741 11.2485 2.40632 10.0585 2.44954 8.85806C2.49275 7.65758 2.85866 6.49094 3.50879 5.48083C4.15893 4.47072 5.06925 3.65447 6.14401 3.11793C7.21878 2.58139 8.41827 2.3444 9.61633 2.43187C10.8144 2.51934 11.9667 2.92804 12.9522 3.615C13.9376 4.30195 14.7197 5.24176 15.2163 6.33559C15.2394 6.38281 15.2594 6.43003 15.2803 6.47948ZM38.1739 21.2581C39.1998 22.4271 40.5596 23.0116 42.1998 23.0116C43.8737 23.0086 45.1511 22.3585 46.0318 21.0613L46.072 22.3585C46.0644 22.407 46.0683 22.4567 46.0835 22.5034C46.0987 22.5501 46.1248 22.5926 46.1595 22.6274C46.1943 22.6621 46.2367 22.6882 46.2835 22.7034C46.3302 22.7186 46.3799 22.7225 46.4284 22.7148H48.7649C49.0228 22.7148 49.1511 22.606 49.1511 22.3585V5.91514C49.159 5.86649 49.1553 5.81665 49.1402 5.76972C49.1251 5.72279 49.0991 5.68011 49.0643 5.64518C49.0295 5.61025 48.9869 5.58408 48.9401 5.5688C48.8932 5.55352 48.8434 5.54957 48.7947 5.55729H46.1809C46.1322 5.54957 46.0824 5.55352 46.0355 5.5688C45.9887 5.58408 45.9461 5.61025 45.9113 5.64518C45.8765 5.68011 45.8505 5.72279 45.8354 5.76972C45.8204 5.81665 45.8166 5.86649 45.8245 5.91514V12.3267C44.9925 11.2173 43.7848 10.6731 42.1998 10.6731C40.5805 10.6731 39.2043 11.2785 38.1739 12.446C37.1436 13.6135 36.6188 15.0687 36.6188 16.8416C36.6188 18.6144 37.1481 20.0891 38.1739 21.2581ZM41.7115 19.779C41.3359 19.6297 40.9947 19.4055 40.7087 19.1199H40.7043C40.1272 18.5459 39.829 17.7735 39.8439 16.8416C39.8429 15.9112 40.1297 15.1587 40.7043 14.5841C40.9864 14.2904 41.327 14.0591 41.704 13.905C42.0809 13.7509 42.486 13.6775 42.8931 13.6895C43.7659 13.6796 44.4791 13.9668 45.0328 14.5513C45.5865 15.1358 45.8633 15.8982 45.8633 16.8386C45.8553 17.7889 45.5785 18.5513 45.0328 19.1259C44.4871 19.7004 43.7738 19.9877 42.8931 19.9877C42.4891 19.9992 42.0871 19.9282 41.7115 19.779ZM53.1024 21.2581C54.3101 22.427 55.8548 23.0115 57.7664 23.0115C59.5586 23.0115 60.9557 22.5225 61.9413 21.5265C62.1486 21.3386 62.1888 21.1701 62.0606 20.9912L61.166 19.764C61.1486 19.7281 61.1235 19.6965 61.0925 19.6714C61.0615 19.6463 61.0254 19.6284 60.9867 19.6188C60.9479 19.6093 60.9076 19.6084 60.8685 19.6162C60.8294 19.6241 60.7925 19.6404 60.7604 19.6641C59.9299 20.1439 58.9864 20.3935 58.0273 20.3873C56.0755 20.3873 54.908 19.6149 54.5412 18.0806H61.6983C62.1933 18.0806 62.5199 17.9509 62.7077 17.6438C62.8956 17.3366 62.9955 16.8923 62.9955 16.2779C62.9955 14.7332 62.49 13.4062 61.4597 12.3162C60.4592 11.2084 59.083 10.6626 57.3608 10.6626C55.5581 10.6626 54.1118 11.2576 52.9831 12.4161C51.8543 13.5747 51.2997 15.0299 51.2997 16.7924C51.2997 18.5846 51.8946 20.0891 53.1024 21.2581ZM60.0537 15.7531H54.498C54.6471 14.9912 54.9736 14.4067 55.4895 13.9996C56.0358 13.5881 56.7072 13.3774 57.3906 13.4032C58.043 13.3804 58.682 13.592 59.1918 13.9996C59.667 14.4062 59.9543 14.9907 60.0537 15.7531ZM70.9757 23.0115C69.0657 23.0115 67.5209 22.427 66.3117 21.2581C65.1024 20.0891 64.5105 18.5846 64.5105 16.7924C64.5105 15.0299 65.0652 13.5747 66.1939 12.4161C67.3226 11.2576 68.7674 10.6626 70.5701 10.6626C72.2938 10.6626 73.67 11.2084 74.6705 12.3162C75.6994 13.4062 76.2048 14.7332 76.2048 16.2779C76.2048 16.8923 76.1064 17.3366 75.9171 17.6438C75.7277 17.9509 75.4026 18.0806 74.9076 18.0806H67.7506C68.1174 19.6149 69.2863 20.3873 71.2366 20.3873C72.1973 20.3944 73.1424 20.1448 73.9742 19.6641C74.0063 19.6404 74.0432 19.6241 74.0823 19.6162C74.1214 19.6084 74.1617 19.6093 74.2005 19.6188C74.2392 19.6284 74.2753 19.6463 74.3063 19.6714C74.3373 19.6965 74.3624 19.7281 74.3798 19.764L75.2744 20.9912C75.4026 21.1701 75.3639 21.3386 75.1551 21.5265C74.1651 22.5225 72.768 23.0115 70.9757 23.0115ZM67.7118 15.7531H73.2675C73.1681 14.9907 72.8808 14.4062 72.4056 13.9996C71.8951 13.5921 71.2557 13.3806 70.6029 13.4032C69.9195 13.3774 69.2481 13.5881 68.7019 13.9996C68.174 14.4067 67.8609 14.9912 67.7118 15.7531ZM78.535 28.0279C78.5817 28.0431 78.6314 28.047 78.6799 28.0394H81.2803C81.3287 28.0476 81.3782 28.0443 81.425 28.0297C81.4718 28.0152 81.5145 27.9898 81.5497 27.9557C81.5848 27.9216 81.6114 27.8796 81.6273 27.8333C81.6432 27.7869 81.648 27.7375 81.6412 27.689V21.3311C82.503 22.4598 83.7301 23.0145 85.2958 23.0145C86.9285 23.0145 88.2749 22.4285 89.3052 21.261C90.3355 20.0935 90.8604 18.607 90.8604 16.8445C90.8604 15.0821 90.3445 13.6253 89.3052 12.4489C88.2659 11.2725 86.9195 10.676 85.2958 10.676C83.5721 10.676 82.2853 11.3172 81.4533 12.6144L81.413 11.3172C81.421 11.2686 81.4173 11.2188 81.4023 11.1719C81.3872 11.125 81.3611 11.0824 81.3263 11.0476C81.2915 11.0127 81.2489 10.9867 81.202 10.9716C81.1551 10.9565 81.1053 10.9528 81.0567 10.9608H78.6799C78.6314 10.9532 78.5817 10.9571 78.535 10.9723C78.4883 10.9875 78.4458 11.0135 78.4111 11.0483C78.3763 11.083 78.3503 11.1255 78.3351 11.1723C78.3199 11.219 78.3159 11.2686 78.3236 11.3172V27.683C78.3159 27.7315 78.3199 27.7812 78.3351 27.8279C78.3503 27.8747 78.3763 27.9171 78.4111 27.9519C78.4458 27.9866 78.4883 28.0127 78.535 28.0279ZM86.7704 19.1258C86.2157 19.6999 85.4926 19.9877 84.6114 19.9877C83.7108 19.9877 82.9787 19.7073 82.424 19.1229C81.8693 18.5384 81.6009 17.7809 81.6009 16.8356C81.6009 15.8902 81.8604 15.1238 82.424 14.5483C82.9876 13.9728 83.7167 13.6865 84.6114 13.6865C85.0143 13.6727 85.4154 13.7454 85.7879 13.8997C86.1603 14.054 86.4953 14.2864 86.7704 14.5811C87.3445 15.1552 87.6322 15.8932 87.6322 16.8386C87.6322 17.7839 87.3251 18.5518 86.7704 19.1258ZM96.8112 23.0115C94.9802 23.0115 93.515 22.3654 92.4156 21.0732C92.2665 20.8957 92.2859 20.6676 92.4543 20.3798L93.2864 19.2019C93.4444 18.9544 93.6427 18.935 93.8902 19.1035C94.9012 19.8654 95.8122 20.2516 96.6129 20.2516C97.4956 20.2516 97.9399 19.925 97.9399 19.272C97.9424 19.1458 97.9182 19.0205 97.8689 18.9043C97.8196 18.7882 97.7462 18.6838 97.6536 18.598C97.3788 18.3621 97.0636 18.1777 96.7232 18.0538L95.2322 17.4499C93.519 16.7759 92.6586 15.7069 92.6586 14.2307C92.6586 13.1422 93.0642 12.2804 93.8664 11.6363C94.6686 10.9921 95.6392 10.676 96.7769 10.676C98.4022 10.676 99.7083 11.2799 100.719 12.4787C100.781 12.5499 100.813 12.6426 100.807 12.7368C100.802 12.831 100.759 12.9193 100.689 12.9827L99.6457 14.2501C99.4966 14.429 99.3192 14.429 99.1 14.2501C98.3187 13.597 97.6059 13.2705 96.9618 13.2705C96.6621 13.2503 96.3655 13.3422 96.1298 13.5284C96.0365 13.6134 95.9625 13.7174 95.9128 13.8334C95.8632 13.9494 95.839 14.0747 95.842 14.2009C95.842 14.6959 96.2193 15.0821 96.9722 15.3505L98.6258 15.9931C100.396 16.7073 101.277 17.842 101.268 19.3912C101.249 20.5304 100.821 21.4116 99.9707 22.0543C99.0895 22.7044 98.0488 23.0115 96.8112 23.0115ZM104.545 21.2581C105.753 22.427 107.298 23.0115 109.209 23.0115C111.002 23.0115 112.399 22.5225 113.375 21.5265C113.583 21.3386 113.623 21.1701 113.495 20.9912L112.6 19.764C112.583 19.7281 112.558 19.6965 112.527 19.6714C112.496 19.6463 112.459 19.6284 112.421 19.6188C112.382 19.6093 112.342 19.6084 112.302 19.6162C112.263 19.6241 112.226 19.6404 112.194 19.6641C111.364 20.1439 110.42 20.3935 109.461 20.3873C107.523 20.3873 106.348 19.6149 105.984 18.0806H113.141C113.636 18.0806 113.963 17.9509 114.151 17.6438C114.339 17.3366 114.438 16.8923 114.438 16.2779C114.438 14.7332 113.933 13.4062 112.903 12.3162C111.902 11.2084 110.526 10.6626 108.804 10.6626C107.012 10.6626 105.555 11.2576 104.426 12.4161C103.297 13.5747 102.743 15.0299 102.743 16.7924C102.743 18.5846 103.338 20.0891 104.545 21.2581ZM111.497 15.7531H105.941C106.09 14.9912 106.408 14.4067 106.932 13.9996C107.479 13.5881 108.15 13.3774 108.834 13.4032C109.486 13.3804 110.125 13.592 110.635 13.9996C111.11 14.4062 111.397 14.9907 111.497 15.7531ZM121.003 23.0116C119.96 23.0116 119.102 22.7447 118.428 22.19C117.754 21.6353 117.449 20.7735 117.449 19.5747V13.515H115.958C115.909 13.5227 115.86 13.5188 115.813 13.5035C115.766 13.4883 115.724 13.4623 115.689 13.4276C115.654 13.3928 115.628 13.3503 115.613 13.3036C115.598 13.2569 115.594 13.2072 115.601 13.1587V11.3068C115.594 11.2582 115.598 11.2086 115.613 11.1618C115.628 11.1151 115.654 11.0726 115.689 11.0379C115.724 11.0031 115.766 10.9771 115.813 10.9619C115.86 10.9467 115.909 10.9428 115.958 10.9504H117.449V8.20837C117.44 8.15908 117.444 8.10845 117.459 8.06081C117.474 8.01316 117.501 7.96992 117.536 7.93477C117.572 7.89961 117.616 7.87359 117.663 7.85892C117.711 7.84425 117.762 7.84137 117.811 7.85052H120.425C120.473 7.84287 120.523 7.8468 120.57 7.862C120.617 7.8772 120.659 7.90324 120.694 7.93799C120.729 7.97274 120.755 8.01521 120.77 8.06194C120.785 8.10868 120.789 8.15834 120.781 8.20688V10.9698H122.633C122.682 10.9622 122.731 10.9661 122.778 10.9813C122.825 10.9965 122.867 11.0225 122.902 11.0573C122.937 11.092 122.963 11.1345 122.978 11.1812C122.993 11.228 122.997 11.2776 122.99 11.3262V13.1781C122.997 13.2266 122.993 13.2763 122.978 13.323C122.963 13.3697 122.937 13.4122 122.902 13.4469C122.867 13.4817 122.825 13.5077 122.778 13.5229C122.731 13.5381 122.682 13.5421 122.633 13.5344H120.781V19.2288C120.781 19.9246 121.129 20.2725 121.825 20.2725C122.074 20.2754 122.323 20.2655 122.571 20.2427C122.858 20.2039 123.007 20.3217 123.007 20.5796V22.3287C122.998 22.7839 122.331 23.0116 121.003 23.0116ZM138.194 21.0016C136.854 22.2743 135.07 22.974 133.223 22.9519C128.955 22.9519 125.796 19.7088 125.796 15.4832C125.796 11.2576 128.955 7.97724 133.223 7.97724C135.067 7.95253 136.849 8.64478 138.194 9.90815C138.231 9.93399 138.263 9.96784 138.285 10.0072C138.308 10.0467 138.322 10.0907 138.326 10.136C138.329 10.1814 138.323 10.2271 138.307 10.2696C138.291 10.3122 138.265 10.3507 138.233 10.3823L137.402 11.2769C137.272 11.426 137.134 11.426 136.965 11.2769C135.94 10.3602 134.612 9.8556 133.238 9.86043C130.118 9.86043 127.771 12.2476 127.771 15.4757C127.771 18.7039 130.118 21.0702 133.238 21.0702C134.612 21.0756 135.94 20.5714 136.965 19.6552C137.134 19.4852 137.272 19.5061 137.402 19.6343L138.233 20.5453C138.401 20.7138 138.343 20.8525 138.194 21.0016ZM142.57 22.685H141.264C141.224 22.6881 141.185 22.6824 141.148 22.6684C141.111 22.6544 141.077 22.6323 141.05 22.6038C141.022 22.5753 141.001 22.5411 140.989 22.5035C140.976 22.466 140.972 22.4261 140.976 22.3868V8.09801C140.972 8.0593 140.977 8.02018 140.99 7.98352C141.003 7.94686 141.024 7.91359 141.052 7.88614C141.079 7.85869 141.113 7.83777 141.149 7.82489C141.186 7.81201 141.225 7.80752 141.264 7.81173H142.57C142.609 7.80752 142.648 7.81201 142.685 7.82489C142.721 7.83777 142.755 7.85869 142.782 7.88614C142.81 7.91359 142.831 7.94686 142.844 7.98352C142.857 8.02018 142.862 8.0593 142.858 8.09801V22.3972C142.862 22.436 142.858 22.4753 142.845 22.5122C142.832 22.549 142.811 22.5825 142.783 22.6101C142.755 22.6377 142.722 22.6588 142.685 22.6718C142.648 22.6847 142.609 22.6892 142.57 22.685ZM155.809 17.5856C155.809 20.6244 153.562 22.9325 150.571 22.9325C147.581 22.9325 145.303 20.6229 145.303 17.5826C145.303 14.5423 147.58 12.2342 150.571 12.2342C153.562 12.2342 155.809 14.5468 155.809 17.5856ZM150.571 13.9698C148.598 13.9698 147.142 15.4459 147.142 17.5856H147.145C147.145 19.7238 148.616 21.179 150.571 21.179C152.526 21.179 154 19.7252 154 17.5856C154 15.4459 152.521 13.9698 150.571 13.9698ZM165.145 21.0806C164.56 22.1196 163.478 22.932 161.839 22.9325C159.661 22.9318 158.137 21.4557 158.147 18.7471V12.7829C158.143 12.7442 158.147 12.7051 158.16 12.6683C158.173 12.6316 158.194 12.5982 158.222 12.5706C158.249 12.5431 158.282 12.522 158.319 12.5089C158.356 12.4958 158.395 12.4911 158.433 12.4951H159.741C159.929 12.4951 160.008 12.5935 160.008 12.7829V18.4862C160.008 20.189 160.885 21.1895 162.44 21.1895C163.995 21.1895 165.143 20.189 165.143 18.4862V12.7829C165.143 12.604 165.222 12.4951 165.41 12.4951H166.718C166.757 12.4909 166.796 12.4954 166.833 12.5084C166.869 12.5213 166.903 12.5424 166.931 12.57C166.958 12.5976 166.979 12.6311 166.992 12.6679C167.005 12.7048 167.01 12.7441 167.005 12.7829V22.3972C167.01 22.436 167.005 22.4753 166.992 22.5122C166.979 22.549 166.958 22.5825 166.931 22.6101C166.903 22.6377 166.869 22.6588 166.833 22.6718C166.796 22.6847 166.757 22.6892 166.718 22.685H165.492C165.283 22.685 165.224 22.5955 165.204 22.3674L165.145 21.0806ZM178.196 20.8719C177.453 22.1389 176.176 22.9321 174.435 22.9325C171.505 22.9317 169.463 20.6253 169.463 17.5856C169.463 14.5453 171.502 12.2372 174.434 12.2372C176.117 12.2372 177.385 12.9902 178.117 14.2188V8.09801C178.113 8.0593 178.117 8.02018 178.131 7.98352C178.144 7.94686 178.165 7.91359 178.192 7.88614C178.22 7.85869 178.253 7.83777 178.29 7.82489C178.327 7.81201 178.366 7.80752 178.405 7.81173H179.711C179.749 7.80752 179.789 7.81201 179.825 7.82489C179.862 7.83777 179.895 7.85869 179.923 7.88614C179.951 7.91359 179.972 7.94686 179.985 7.98352C179.998 8.02018 180.003 8.0593 179.998 8.09801V22.3868C180.003 22.4256 179.998 22.4649 179.985 22.5017C179.972 22.5386 179.951 22.5721 179.924 22.5997C179.896 22.6273 179.863 22.6484 179.826 22.6613C179.789 22.6743 179.75 22.6788 179.711 22.6745H178.503C178.315 22.6745 178.236 22.5761 178.236 22.3868L178.196 20.8719ZM174.769 13.9698C172.75 13.9698 171.294 15.4459 171.294 17.5856H171.297C171.297 19.7536 172.753 21.1999 174.769 21.2088C176.76 21.2088 178.157 19.7819 178.157 17.6139C178.157 15.4459 176.788 13.9698 174.769 13.9698ZM21.9572 27.7147C21.4832 28.0314 20.926 28.2004 20.3559 28.2004C19.9773 28.201 19.6022 28.1268 19.2523 27.9822C18.9023 27.8376 18.5843 27.6253 18.3166 27.3575C18.0488 27.0898 17.8366 26.7718 17.6919 26.4219C17.5473 26.0719 17.4731 25.6969 17.4737 25.3182C17.4737 24.7482 17.6428 24.1909 17.9595 23.7169C18.2762 23.243 18.7263 22.8735 19.253 22.6554C19.7796 22.4372 20.3591 22.3802 20.9182 22.4914C21.4773 22.6026 21.9909 22.8771 22.394 23.2802C22.797 23.6833 23.0715 24.1968 23.1828 24.7559C23.294 25.315 23.2369 25.8945 23.0187 26.4212C22.8006 26.9478 22.4312 27.398 21.9572 27.7147Z" fill="white"/>
</svg>
