<svg id="Layer_1" data-name="Layer 1" xmlns="http://www.w3.org/2000/svg" viewBox="0 0 997.46 918"><defs><style>.cls-1{fill:#188bf5;}</style></defs><title>Artboard 1 copy 5</title><path class="cls-1" d="M618.53,335.44c-28,0-51.39,11.05-66.54,28.75h0A8.21,8.21,0,0,0,550.1,369a5.81,5.81,0,0,0,2,4.4h0l12.37,11.3h0a6.8,6.8,0,0,0,5.56,2.38,7.67,7.67,0,0,0,4.8-2.38h0c10.35-10.68,22.72-18,42.67-18,34.09,0,58.84,23.86,58.84,57.39s-24.75,57.63-59.59,57.63c-11.24,0-26.14-6.15-38.89-15.82l-1.52-1.51c-21.71-18.46-31.56-47.59-40.15-75.71L534.44,383c-3.41-10.93-6.56-21.6-10.35-30.77h0c-.38-.75-3-6.28-3.79-7.91h0a115.93,115.93,0,0,0-103.41-63.41c-64,0-116,51.61-116,115.14,0,61.28,48.36,111.51,109.09,115.15H617.52A113.48,113.48,0,0,0,641.26,508h0c40.53-8.79,69.32-40.81,69.32-84C710.58,373.61,670.93,335.44,618.53,335.44ZM507,391.94Zm-12.37-30.76c.51,1,.89,2,1.39,3.14,3.28,7.91,6.19,17.7,9.34,28.12h0c4.42,14.44,9.35,30.64,16.42,46.59h0c6.69,15.07,15.53,29.63,27.4,41.94H417.15c-47,0-85.35-37.92-85.35-84.76s38.25-84.76,85.35-84.76a85.24,85.24,0,0,1,77.52,49.73Zm38.38,23Zm-11.86-34.28Zm119.69,156.7Z"/><path class="cls-1" d="M560.2,638.43a36.54,36.54,0,1,0-36.74-36.54A36.6,36.6,0,0,0,560.2,638.43Z"/></svg>
