<svg width="411" height="358" viewBox="0 0 411 358" fill="none" xmlns="http://www.w3.org/2000/svg">
<path fill-rule="evenodd" clip-rule="evenodd" d="M251.99 83.2798C267.141 65.5801 290.531 54.5298 318.531 54.5298C370.93 54.5298 410.58 92.7002 410.58 143.09C410.58 186.28 381.791 218.3 341.26 227.09C333.482 228.991 325.525 230.064 317.521 230.29H109.98C49.25 226.65 0.890625 176.42 0.890625 115.14C0.890625 51.6099 52.8906 1.45959e-05 116.891 1.45959e-05C138.303 -0.0107276 159.299 5.90822 177.551 17.1006C195.805 28.293 210.602 44.3218 220.301 63.4102C221.09 65.0401 223.711 70.5698 224.09 71.3198C227.881 80.4902 231.031 91.1602 234.441 102.09L236.191 107.77C244.781 135.89 254.631 165.02 276.34 183.48L277.861 184.99C290.611 194.66 305.51 200.81 316.75 200.81C351.59 200.81 376.34 176.71 376.34 143.18C376.34 109.65 351.59 85.7901 317.5 85.7901C297.551 85.7901 285.18 93.1099 274.83 103.79C273.568 105.135 271.865 105.98 270.031 106.17C268.982 106.229 267.936 106.045 266.971 105.632C266.008 105.219 265.15 104.589 264.471 103.79L252.102 92.4902C251.471 91.9429 250.967 91.2671 250.621 90.5078C250.404 90.0327 250.254 89.5318 250.172 89.0195C250.123 88.7129 250.1 88.4019 250.102 88.0899C250.197 86.3252 250.859 84.6382 251.99 83.2798ZM195.574 82.3613C195.266 81.6343 194.979 80.9522 194.631 80.27H194.67C187.869 65.4273 176.947 52.8501 163.205 44.0342C149.463 35.2183 133.479 30.5347 117.15 30.5401C70.0508 30.5401 31.8008 68.46 31.8008 115.3C31.8008 162.14 70.1504 200.06 117.15 200.06H249.18C237.311 187.75 228.471 173.19 221.781 158.12C214.801 142.374 209.906 126.384 205.531 112.084L205.361 111.53L204.885 109.953C201.916 100.124 199.135 90.9194 196.021 83.4102C195.863 83.0479 195.717 82.6997 195.574 82.3613ZM280.447 351.265C274.465 355.304 267.42 357.48 260.201 357.52C255.389 357.538 250.619 356.607 246.166 354.78C241.713 352.953 237.664 350.265 234.252 346.871C230.838 343.477 228.129 339.443 226.277 335C224.426 330.557 223.469 325.793 223.461 320.98C223.461 313.762 225.6 306.705 229.605 300.7C233.611 294.696 239.307 290.012 245.973 287.241C252.637 284.47 259.975 283.734 267.057 285.128C274.139 286.522 280.65 289.982 285.768 295.072C290.887 300.163 294.383 306.655 295.814 313.73C297.246 320.804 296.551 328.145 293.816 334.825C291.082 341.505 286.43 347.226 280.447 351.265Z" fill="#188BF5"/>
</svg>
